<svg xmlns="http://www.w3.org/2000/svg" xmlns:xlink="http://www.w3.org/1999/xlink" width="500" zoomAndPan="magnify" viewBox="0 0 375 374.999991" height="500" preserveAspectRatio="xMidYMid meet" version="1.0"><defs><clipPath id="9bbd73e11d"><path d="M 44 25 L 337 25 L 337 350 L 44 350 Z M 44 25 " clip-rule="nonzero"/></clipPath><clipPath id="1c96dc4fae"><path d="M 226.453125 2.898438 L 358.554688 107.902344 L 148.546875 372.101562 L 16.445312 267.097656 Z M 226.453125 2.898438 " clip-rule="nonzero"/></clipPath><clipPath id="9a9c6ceed2"><path d="M 226.453125 2.898438 L 358.554688 107.902344 L 148.546875 372.101562 L 16.445312 267.097656 Z M 226.453125 2.898438 " clip-rule="nonzero"/></clipPath></defs><g clip-path="url(#9bbd73e11d)"><g clip-path="url(#1c96dc4fae)"><g clip-path="url(#9a9c6ceed2)"><path fill="#171717" d="M 270.785156 108.738281 C 270.777344 109.335938 270.625 109.96875 270.78125 110.53125 C 271.855469 114.378906 273.714844 117.832031 276.183594 120.984375 C 279.574219 125.335938 281.101562 127.4375 282.746094 132.945312 C 283.035156 133.929688 282.988281 134.894531 282.125 135.75 C 281.632812 136.246094 281.320312 137.035156 281.195312 137.742188 C 279.84375 144.851562 276.308594 150.816406 271.535156 156.128906 C 270.5625 157.226562 269.699219 158.417969 268.808594 159.535156 C 269.160156 160.25 269.734375 160.101562 270.207031 160.074219 C 275.921875 159.730469 279.570312 156.402344 281.984375 151.574219 C 284.214844 147.105469 285.617188 142.328125 286.597656 137.429688 C 287.261719 134.089844 289.136719 127.664062 291.101562 124.921875 C 291.566406 124.273438 292.734375 124.445312 292.976562 125.191406 C 293.1875 125.792969 293.242188 126.441406 293.421875 127.035156 C 293.683594 127.863281 294 128.667969 294.242188 129.328125 C 295.683594 129.921875 296.761719 129.488281 297.726562 128.867188 C 303.824219 124.859375 310.679688 122.320312 317.109375 118.945312 C 325.75 114.394531 328.113281 109.546875 331.226562 105.339844 C 331.53125 104.929688 331.882812 104.554688 332.253906 104.214844 C 332.851562 103.671875 334.042969 103.542969 334.324219 104.070312 C 334.578125 104.574219 334.777344 105.335938 334.578125 105.796875 C 334.179688 106.71875 333.535156 107.527344 332.929688 108.351562 C 332.191406 109.371094 331.375 110.332031 330.59375 111.316406 C 330.898438 112.109375 331.566406 112.007812 332.191406 112 C 332.964844 111.996094 333.722656 111.945312 334.484375 112 C 335.246094 112.035156 336.0625 112.078125 336.285156 113.042969 C 336.445312 113.707031 335.890625 114.234375 334.839844 114.457031 C 332.710938 114.90625 330.183594 114.570312 323.664062 118.113281 C 305.625 127.898438 303.308594 127.929688 301.761719 131.304688 C 302.71875 132.164062 303.707031 133.070312 304.558594 133.832031 C 304.804688 135.164062 304.019531 135.691406 303.367188 136.28125 C 301.757812 137.714844 301.796875 139.367188 302.726562 141.109375 C 303.140625 141.890625 303.742188 142.589844 304.140625 143.375 C 304.464844 144.015625 304.605469 144.765625 304.894531 145.648438 C 304.089844 146.046875 303.441406 146.398438 302.773438 146.671875 C 300.980469 147.390625 296.253906 148.136719 295.8125 153.261719 C 295.644531 155.304688 295.714844 156.964844 293.574219 157.65625 C 289.75 158.90625 286.703125 160.949219 285.78125 164.804688 C 285.425781 166.265625 284.878906 167.289062 283.359375 167.285156 C 282.855469 167.285156 282.363281 167.128906 281.847656 167.101562 C 279.285156 166.957031 277.117188 167.914062 275.316406 169.695312 C 274.945312 170.054688 274.648438 170.472656 274.308594 170.855469 C 272.140625 173.332031 272.089844 173.394531 269.402344 171.507812 C 268.195312 170.648438 267.050781 170.59375 265.828125 171.160156 C 261.46875 173.171875 260.464844 174.648438 258.726562 172.496094 C 258.316406 172 258.050781 171.40625 257.648438 170.921875 C 255.683594 168.554688 253.34375 167.113281 250.074219 167.226562 C 244.546875 167.417969 239.582031 165.664062 234.945312 162.648438 C 232.367188 160.96875 229.808594 159.339844 227.828125 156.945312 C 227.527344 156.566406 227.070312 156.320312 226.65625 155.996094 C 225.871094 156.945312 226.523438 157.511719 226.996094 157.972656 C 228.203125 159.148438 250.070312 179.847656 252.003906 181.015625 C 256.691406 183.835938 257.335938 188.816406 256.886719 194.1875 C 255.007812 216.914062 248.324219 219.085938 248.476562 229.703125 C 248.503906 231.25 248.082031 232.871094 246.53125 232.929688 C 245.777344 232.949219 244.988281 232.910156 244.253906 232.761719 C 242.800781 232.460938 241.710938 233.050781 240.910156 234.121094 C 238.445312 237.433594 233.414062 243.429688 227.769531 256.886719 C 223.847656 266.226562 225.742188 270.476562 225.800781 272.949219 C 225.808594 273.695312 225.941406 274.519531 224.992188 274.851562 C 223.117188 275.503906 222.457031 271.214844 221.78125 266.84375 C 219.546875 267.84375 217.609375 268.867188 215.992188 269.15625 C 215.726562 269.195312 215.261719 268.894531 215.101562 268.632812 C 214.648438 267.835938 215.386719 267.035156 216.105469 266.464844 C 217.988281 264.984375 221.582031 263.304688 223.832031 258.242188 C 230.574219 243.082031 234.214844 239.027344 237.886719 232.722656 C 232.046875 226.992188 244.167969 221.15625 247.457031 206.996094 C 249.015625 200.316406 247.835938 204.453125 250.328125 195.90625 C 249.167969 194.480469 249.820312 195.113281 247.929688 193.445312 C 246.558594 193.742188 246.167969 194.925781 245.496094 195.796875 C 235.761719 208.566406 230.519531 216.402344 209.917969 240.304688 C 205.246094 245.714844 200.265625 250.84375 194.71875 255.378906 C 193.695312 256.203125 192.941406 257.128906 192.429688 258.34375 C 189.90625 264.339844 187.175781 270.238281 184.835938 276.296875 C 176.308594 298.296875 172.058594 302.839844 169.140625 315.25 C 168.917969 316.246094 168.628906 317.222656 168.242188 318.167969 C 167.699219 319.511719 166.417969 319.898438 165.097656 319.285156 C 163.550781 318.558594 162.929688 317.210938 162.519531 315.429688 C 161.796875 315.792969 161.085938 316.011719 160.550781 316.457031 C 154.59375 321.316406 148.890625 324.28125 140.425781 328.902344 C 136.132812 331.25 132.484375 334.410156 129 337.800781 C 126.769531 339.976562 125.375 342.703125 124.007812 345.449219 C 123.457031 346.585938 122.839844 347.703125 122.160156 348.769531 C 122 349.011719 121.417969 349.234375 121.179688 349.113281 C 120.789062 348.933594 120.332031 348.519531 120.25 348.136719 C 120.089844 347.410156 120.199219 346.625 120.199219 345.90625 C 119.382812 345.4375 118.269531 346.3125 117.746094 345.261719 C 117.21875 344.222656 118.039062 343.566406 118.683594 343.007812 C 122.703125 339.492188 126.730469 335.980469 130.816406 332.53125 C 142.089844 322.976562 147.242188 324.140625 158.367188 314.503906 C 157.871094 312.285156 158.933594 310.652344 160.398438 309.085938 C 164.324219 304.839844 167.015625 299.75 169.820312 294.746094 C 174.898438 285.660156 178.003906 275.839844 180.9375 265.53125 C 180.082031 265.707031 179.503906 265.714844 179.003906 265.921875 C 172.328125 268.617188 163.738281 273.1875 151.777344 272.503906 C 148.460938 272.3125 145.195312 271.875 142.023438 270.808594 C 138.515625 269.644531 134.976562 268.574219 131.484375 267.371094 C 129.164062 266.582031 128.582031 264.53125 129.980469 262.5625 C 129.980469 262.5625 135.882812 256.972656 187.816406 188.351562 C 188.1875 187.859375 188.671875 187.355469 188.117188 186.664062 C 187.171875 186.316406 186.828125 187.128906 186.382812 187.644531 C 168.972656 207.992188 145.433594 235.6875 127.90625 258.917969 C 126.203125 261.164062 124.496094 264.007812 122.347656 260.496094 C 119.894531 256.464844 117.382812 252.464844 115.199219 248.300781 C 108.199219 235.015625 111.152344 221.613281 112.925781 211.738281 C 112.148438 211.890625 111.542969 211.878906 111.066406 212.136719 C 100.273438 217.988281 90.113281 224.746094 81.441406 233.550781 C 78.832031 236.179688 76.199219 238.777344 74.1875 241.898438 C 73.210938 243.417969 71.832031 244.164062 69.996094 244.242188 C 61.730469 260.558594 67.453125 259.195312 55.191406 281.84375 C 54.046875 283.980469 52.917969 286.113281 51.773438 288.25 C 51.410156 288.914062 51.113281 289.648438 50.636719 290.226562 C 50.359375 290.554688 49.75 290.878906 49.351562 290.8125 C 49 290.75 48.675781 290.1875 48.453125 289.792969 C 48.273438 289.46875 48.285156 289.058594 48.179688 288.539062 C 47.433594 288.71875 46.746094 288.972656 46.039062 288.996094 C 45.601562 289.019531 44.964844 288.8125 44.757812 288.480469 C 44.554688 288.167969 44.644531 287.488281 44.863281 287.109375 C 46.363281 284.652344 55.152344 282.546875 60.730469 262.660156 C 62.792969 255.308594 64.714844 247.894531 68.496094 240.839844 C 67.671875 240.636719 67.121094 240.46875 66.558594 240.371094 C 65.371094 240.164062 64.417969 239.574219 63.71875 238.597656 C 63.074219 237.703125 63.117188 236.597656 63.925781 235.832031 C 64.375 235.390625 64.886719 234.957031 65.445312 234.699219 C 73.273438 231.0625 79.839844 225.582031 86.667969 220.464844 C 93.199219 215.578125 99.941406 210.992188 106.558594 206.226562 C 109.972656 203.765625 113.308594 201.210938 116.691406 198.726562 C 117.851562 197.875 118.78125 196.855469 119.417969 195.570312 C 123.867188 186.621094 129.558594 178.472656 135.652344 170.59375 C 139.433594 165.710938 159.941406 139.492188 164.671875 134.042969 C 165.753906 132.8125 166.847656 131.605469 168.128906 130.179688 C 166.324219 128.59375 167.164062 129.179688 165 127.945312 C 147.757812 136.855469 150.191406 134.824219 139.722656 145.972656 C 139.1875 146.515625 138.6875 147.125 138.089844 147.585938 C 136.203125 149.03125 134.207031 150.109375 131.796875 148.277344 C 120.5625 159.652344 123.253906 157.152344 112.582031 165.878906 C 111.890625 166.433594 111.222656 167.042969 110.464844 167.53125 C 105.785156 170.574219 105.027344 174.859375 102.96875 178.328125 C 102.828125 178.570312 102.203125 178.789062 102.023438 178.679688 C 101.640625 178.445312 101.167969 177.984375 101.152344 177.605469 C 101.144531 176.726562 101.363281 175.84375 101.523438 174.96875 C 101.699219 173.988281 101.886719 173.015625 102.113281 171.804688 C 100.507812 171.886719 99.148438 172.078125 97.78125 172.011719 C 96.535156 171.957031 95.289062 171.671875 94.0625 171.398438 C 93.539062 171.28125 93.527344 170.054688 94.007812 169.765625 C 94.332031 169.570312 94.671875 169.371094 95.035156 169.292969 C 95.644531 169.15625 96.285156 169.046875 96.914062 169.011719 C 102.253906 168.804688 106.714844 166.4375 110.898438 163.386719 C 116.15625 159.546875 121.070312 155.285156 125.632812 150.660156 C 127.144531 149.113281 128.414062 147.328125 129.792969 145.660156 C 130.59375 144.691406 130.855469 143.625 130.347656 142.453125 C 128.5 138.1875 130.105469 137.875 133.449219 137.035156 C 136.871094 136.1875 139.78125 134.398438 142.554688 132.320312 C 150.980469 125.972656 162.421875 121.289062 169.875 120 C 172.425781 119.550781 174.683594 120.207031 176.378906 122.308594 C 176.78125 122.792969 177.199219 123.296875 177.730469 123.617188 C 190.875 131.871094 182.234375 125.871094 205.511719 141.867188 C 206.738281 142.707031 207.804688 143.804688 209.332031 144.011719 C 209.890625 143.203125 209.292969 142.945312 208.980469 142.664062 C 200.199219 134.714844 194.617188 131.078125 193.117188 122.753906 C 192.375 118.652344 190.265625 116.085938 186.410156 114.761719 C 184.351562 114.066406 184.042969 113.046875 184.34375 111.695312 C 185.15625 108.023438 186.734375 105.257812 183.945312 103.628906 C 183.726562 103.503906 183.519531 103.339844 183.339844 103.164062 C 179.75 99.660156 188.097656 98.425781 185.65625 90.375 C 184.964844 88.085938 185.011719 87.585938 186.855469 86.574219 C 190.195312 84.726562 191.703125 81.839844 192.195312 78.230469 C 192.261719 77.726562 192.324219 77.226562 192.425781 76.722656 C 192.585938 75.761719 193.117188 75.09375 194.015625 74.738281 C 196.429688 73.808594 199.738281 73.394531 200.613281 68.695312 C 200.839844 67.441406 200.859375 66.148438 201.054688 64.898438 C 201.234375 63.699219 202.113281 63.164062 203.28125 63.484375 C 205.042969 63.964844 206.96875 65.246094 209.171875 64.519531 C 210.414062 64.117188 210.824219 63.054688 211.378906 62.039062 C 212.007812 60.867188 212.808594 60.765625 213.878906 61.546875 C 214.183594 61.773438 214.425781 62.082031 214.722656 62.320312 C 215.09375 62.648438 215.484375 62.941406 216.058594 63.398438 C 216.628906 62.78125 217.269531 62.335938 217.5625 61.714844 C 219.195312 58.226562 218.777344 59.046875 224.710938 36.359375 C 225.300781 34.117188 225.453125 31.84375 225.292969 29.539062 C 225.222656 28.511719 225.09375 27.492188 225.175781 26.484375 C 225.199219 26.117188 225.714844 25.554688 226.054688 25.523438 C 226.433594 25.492188 227.09375 25.863281 227.226562 26.222656 C 227.742188 27.617188 228.09375 29.089844 228.484375 30.46875 C 229.484375 30.730469 229.722656 30.011719 230.078125 29.5625 C 230.878906 28.554688 231.578125 27.488281 232.390625 26.507812 C 232.789062 26.023438 233.289062 25.5 233.847656 25.324219 C 234.371094 25.171875 235.125 25.320312 235.589844 25.621094 C 235.851562 25.777344 235.929688 26.625 235.746094 27 C 235.035156 28.527344 232.945312 30.800781 230.324219 33.886719 C 225.339844 39.738281 225.375 43.800781 221.90625 57.785156 C 219.25 68.480469 218.820312 66.34375 219.621094 69.929688 C 220.890625 70.835938 222.335938 70.195312 223.691406 70.367188 C 224.117188 70.421875 224.707031 70.773438 224.839844 71.132812 C 224.984375 71.5 224.800781 72.257812 224.492188 72.476562 C 218.199219 77.339844 217.128906 77.757812 213.558594 79.40625 C 209.730469 81.167969 206.125 83.324219 202.636719 85.691406 C 200.601562 87.070312 198.90625 88.785156 197.5 90.765625 C 195.132812 94.039062 194.414062 97.636719 195.507812 101.503906 C 196.546875 101.84375 196.75 101.082031 197.089844 100.632812 C 198.484375 98.8125 199.851562 96.96875 201.238281 95.140625 C 204.453125 90.886719 208.570312 87.730469 213.292969 85.324219 C 214.414062 84.757812 215.585938 84.398438 216.164062 83.035156 C 216.539062 82.144531 217.640625 81.980469 218.515625 82.125 C 220.773438 82.464844 223.0625 82.761719 225.230469 83.425781 C 233.777344 86.089844 236.703125 88.644531 244.628906 88.820312 C 244.976562 88.828125 245.34375 88.683594 245.734375 88.59375 C 244.761719 87.539062 243.4375 87.605469 242.28125 87.207031 C 239.875 86.378906 237.417969 85.683594 235.066406 84.71875 C 231.207031 83.15625 230.976562 79.292969 233.257812 75.8125 C 236.542969 70.773438 241.074219 67.496094 246.976562 66.179688 C 247.703125 66.019531 248.441406 65.871094 249.507812 65.628906 C 248.625 63.871094 249.753906 64.683594 244.75 60.828125 C 244.257812 60.433594 243.675781 60.136719 243.148438 59.789062 C 239.453125 57.234375 239.105469 56.472656 240.0625 52.128906 C 241.164062 47.144531 242.339844 42.1875 243.460938 37.21875 C 244.410156 32.949219 244.710938 29.390625 246.714844 26.765625 C 248.097656 24.964844 250.320312 25.242188 251.402344 27.273438 C 256.34375 36.578125 243.972656 46.09375 242.425781 55.644531 C 250.390625 60.957031 247.292969 58.726562 254.0625 64.109375 C 254.472656 63.148438 254.933594 62.257812 255.265625 61.332031 C 258.089844 53.25 266.417969 46.859375 276.289062 46.90625 C 277.773438 46.914062 279.292969 47.320312 280.765625 47.703125 C 281.109375 47.773438 281.5 48.4375 281.539062 48.851562 C 281.558594 49.269531 281.285156 49.890625 280.949219 50.125 C 278.695312 51.714844 271.308594 52.625 270.433594 58.507812 C 270.28125 59.523438 270.835938 60.316406 271.851562 60.371094 C 272.742188 60.425781 273.640625 60.285156 274.515625 60.363281 C 274.800781 60.386719 275.199219 60.789062 275.28125 61.085938 C 275.351562 61.394531 275.222656 61.980469 275.003906 62.105469 C 272.273438 63.667969 269.863281 63.375 268.394531 68.824219 C 267.828125 70.96875 267.914062 73.113281 269.800781 74.910156 C 274.472656 74.105469 275.859375 67.203125 278.929688 64.691406 C 279.132812 64.519531 279.722656 64.550781 279.976562 64.71875 C 280.222656 64.898438 280.453125 65.449219 280.347656 65.683594 C 279.566406 67.574219 277.632812 70.890625 276.5 73.15625 C 275.992188 74.175781 275.59375 75.246094 274.945312 76.757812 C 277.488281 75.683594 275.476562 77.265625 283.21875 70.644531 C 283.695312 70.234375 284.105469 69.675781 284.652344 69.410156 C 285 69.246094 285.609375 69.363281 285.976562 69.574219 C 286.175781 69.683594 286.28125 70.332031 286.144531 70.609375 C 285.777344 71.257812 285.320312 71.898438 284.792969 72.433594 C 282.914062 74.355469 278.515625 77.402344 278.207031 81.394531 C 280.511719 84.179688 287.890625 81.910156 289.074219 75.769531 C 289.140625 75.386719 289.082031 74.957031 289.261719 74.644531 C 289.558594 74.125 289.921875 73.394531 290.375 73.289062 C 291.421875 73.046875 291.449219 74.023438 291.632812 74.738281 C 292.441406 77.910156 293.480469 78.25 295.960938 76.285156 C 299.308594 73.675781 298.964844 68.144531 299.960938 65.019531 C 300.207031 64.226562 301.808594 63.960938 302.207031 64.679688 C 302.9375 66.011719 303.765625 67.375 304.050781 68.824219 C 306.050781 78.480469 303.191406 86.417969 295.289062 92.441406 C 294.394531 93.125 293.453125 93.761719 292.339844 94.550781 C 299.683594 100.390625 296.785156 97.867188 303.164062 103.976562 C 306.164062 102.894531 308.488281 100.691406 310.851562 98.621094 C 313.480469 96.304688 315.914062 92.882812 321.660156 89.617188 C 323.699219 88.460938 326.019531 88.277344 328.355469 88.710938 C 329.546875 88.9375 330.597656 89.472656 330.984375 90.667969 C 331.398438 92 330.917969 93.257812 329.867188 94.097656 C 327.257812 96.15625 327.386719 95.65625 309.082031 104.597656 C 308.289062 104.984375 307.429688 105.308594 306.679688 105.765625 C 303.921875 107.425781 301.636719 106.695312 299.441406 104.617188 C 297.785156 103.03125 296.023438 101.566406 294.234375 100.128906 C 293.691406 99.695312 292.964844 99.515625 292.019531 99.085938 C 291.992188 100.320312 291.941406 101.183594 291.945312 102.039062 C 291.980469 106.503906 290.785156 110.640625 288.253906 114.289062 C 287.253906 115.738281 285.953125 117.015625 284.621094 118.183594 C 283.234375 119.421875 281.476562 119.800781 279.609375 119.519531 C 278.308594 119.324219 277.195312 118.910156 276.464844 117.660156 C 275.257812 115.558594 273.960938 113.523438 272.648438 111.492188 C 272.042969 110.542969 271.335938 109.664062 270.683594 108.761719 C 270.707031 108.5625 270.738281 108.351562 270.78125 108.152344 C 270.617188 108.1875 270.464844 108.234375 270.3125 108.28125 C 270.476562 108.429688 270.625 108.582031 270.785156 108.738281 " fill-opacity="1" fill-rule="nonzero"/></g></g></g></svg>